<?xml version="1.0" encoding="utf-8"?>
<!-- Generator: Adobe Illustrator 23.0.3, SVG Export Plug-In . SVG Version: 6.00 Build 0)  -->
<svg version="1.1" id="Capa_1" xmlns="http://www.w3.org/2000/svg" xmlns:xlink="http://www.w3.org/1999/xlink" x="0px" y="0px"
	 viewBox="0 0 1200 1200" enable-background="new 0 0 1200 1200" xml:space="preserve">
<g>
	<path fill="#F9EC78" d="M79.682,687.094c-15.018-76.022-10.254-159.06,15.074-240.46
		c42.365-136.147,136.916-250.331,252.931-305.448c153.572-72.951,380.4-91.698,540.951,30.887
		c83.987,64.124,144.115,164.272,169.334,279.844c-9.191-25.124-21.394-49.012-37.106-70.781
		c-26.026-36.059-60.504-64.951-96.196-91.639c-4.316-7.573-8.902-14.996-13.853-22.205
		c-49.646-72.3-141.061-122.901-225.79-141.806c-68.573-15.3-140.169-5.892-205.446,20.79
		c-31.985,3.735-62.757,20.568-84.911,46.895c-11.666,8.318-22.903,17.2-33.616,26.602c-9.914,8.701-19.44,17.836-28.564,27.355
		c-46.144,32.461-87.369,72.017-122.057,116.548c-28.939,37.15-53.672,78.205-67.434,123.24
		c-18.241,59.695-11.9,123.238,10.058,183.505c-7.815,51.465,18.798,106.548,65.768,133.726c5.905,3.415,11.93,6.001,18.062,7.829
		c24.906,29.419,52.652,55.552,81.374,76.94c1.251,13.179,6.302,26.582,15.107,39.921c24.342,36.879,67.997,58.14,113.398,58.14
		c15.051,0,30.296-2.336,45.09-7.215c4.233-1.396,8.255-3.026,12.086-4.872c63.899,16.892,130.661,24.052,194.191,20.614
		c112.885-6.107,224.084-98.145,296.23-178.481c20.326-22.633,39.335-46.73,53.423-73.692c7.599-14.543,13.652-29.758,18.411-45.401
		c-1.22,8.821-2.573,17.573-4.133,26.205c-18.377,34.185-40.153,66.664-61.822,98.941c-19.348,28.82-38.79,57.761-62.191,83.399
		c-22.454,24.6-48.354,45.916-75.933,64.59c-117.775,79.748-269.884,109.664-407.301,72.96
		c-84.831-22.658-162.094-69.206-227.921-127.313C153.689,852.092,107.97,778.791,79.682,687.094z M193.442,752.485
		c-2.825-4.531-5.575-9.104-8.244-13.719C187.62,743.51,190.375,748.09,193.442,752.485z M1140.95,500.587
		c-1.99-10.051-4.232-20.054-6.642-30.001c-43.804-180.773-171.816-358.434-364.885-394.118
		c-22.906-4.234-45.686-5.774-68.481-6.357c71.178,12.197,140.277,39.118,200.547,85.133
		c100.72,76.908,168.614,202.846,186.274,345.535c6.582,53.189,7.882,105.962,4.051,156.609
		c15.286-43.559,24.079-89.268,32.782-134.686c16.529,90.722-1.129,184.762-32.473,271.487c-1.145,3.17-2.359,6.324-3.546,9.485
		c22.062-39.379,38.961-81.608,49.532-125.633c7.375-30.715,11.896-62.204,11.891-93.792
		C1149.996,556.145,1146.417,528.188,1140.95,500.587z M345.548,907.619c1.559,3.16,3.371,6.346,5.493,9.558
		c24.049,36.444,70.861,54.595,116.26,46.886c-42.953-14.19-84.003-32.904-121.11-56.034
		C345.976,907.894,345.762,907.753,345.548,907.619z"/>
	<path fill="#FFA840" d="M633.167,376.007c-1.139-30.883-0.895-64.047,0.758-106.336c1.145-29.225,4.433-58.652,20.6-75.928
		c6.959-7.434,16.849-12.843,29.399-16.072c7.451-1.919,15.043-2.845,22.63-2.845c38.094,0,76.159,23.304,96.168,61.08
		c13.112,24.763,10.788,50.54-7.315,81.121c-21.106,35.643-49.347,80.282-81.77,112.042
		C693.188,403.01,664.27,383.236,633.167,376.007z M951.563,739.089c14.504-22.69,24.879-47.038,31.929-72.422
		c-2.973-12.119-7.839-21.69-14.506-28.426c-15.688-15.845-42.651-18.966-69.457-19.984c-21.224-0.802-39.955-1.203-57.201-1.203
		c-16.936,0-32.434,0.385-47.451,1.162c-3.986,0.203-8.216,0.26-12.562,0.318c-14.964,0.194-31.921,0.414-41.836,7.889
		c-5.433,4.098-8.497,10.002-9.374,18.04c-1.877,17.279,7.137,38.33,16.577,49.362c0.74,0.86,1.505,1.741,2.278,2.617
		c29.341,33.273,71.822,62.175,105.554,83.635c17.65,11.229,33.54,16.196,48.566,15.026
		C922.063,778.384,938.225,759.953,951.563,739.089z M549.524,747.69c-0.108-1.257-0.219-2.514-0.343-3.763
		c-1.546-15.708-11.226-38.371-26.124-49.44c-5.466-4.06-10.941-6.066-16.614-6.066c-1.621,0-3.262,0.165-4.92,0.492
		c-13.587,2.679-26.57,16.403-38.024,28.514c-3.283,3.465-6.475,6.839-9.601,9.903c-23.903,23.461-48.009,49.614-78.161,84.797
		c-4.407,5.142-8.721,10.375-12.77,15.676c40.793,33.279,85.733,62.753,129.714,84.195c10.682,5.208,21.819,9.169,33.236,12.217
		c4.294-8.605,7.574-18.659,9.884-30.321C544.289,851.003,553.518,795.625,549.524,747.69z M917.61,572.01
		c-36.816,7.298-82.655,15.125-126.149,15.125c-8.774,0-17.449-0.318-25.938-1.025c-1.356-0.112-2.717-0.236-4.073-0.368
		c-6.386-0.627-13.646-2.242-21.076-4.812c-1.735,8.279-3.835,16.476-6.252,24.551c14.484-7.67,32.114-7.911,47.915-8.116
		c4.069-0.054,8.022-0.099,11.751-0.294c30.962-1.592,63.821-1.584,106.542,0.033c31.143,1.178,62.841,5.177,83.697,26.244
		c2.545,2.571,4.882,5.404,7.033,8.462c5.661-35.607,5.695-72.649,1.948-109.631C979.299,548.301,954.506,564.692,917.61,572.01z
		 M699.639,724.928c-3.122-3.064-6.31-6.43-9.585-9.895c-4.784-5.057-9.838-10.387-15.088-15.086
		c-0.815,0.595-1.602,1.219-2.434,1.794c-17.792,12.285-40.419,18.52-61.786,16.889c-3.503,7.929-5.714,16.066-6.386,22.89
		c-0.124,1.253-0.236,2.506-0.343,3.767c-3.998,47.91,5.235,103.305,13.723,146.203c3.465,17.494,9.087,31.404,17.108,42.136
		c15.132-0.516,30.203-1.957,44.926-5.393c33.219-7.755,63.235-25.2,92.685-42.415c13.021-7.611,26.133-15.319,39.123-23.265
		c-5.73-18.152-19.321-35.966-33.778-52.833C747.64,774.525,723.53,748.376,699.639,724.928z M306.394,776.422
		c32.806-21.169,72.865-49.091,100.875-81.091c0.008-0.008,0.017-0.017,0.021-0.029c0.757-0.856,1.505-1.724,2.241-2.593
		c9.37-11.032,18.317-32.094,16.436-49.391c-0.864-7.935-3.998-14.009-9.32-18.053c-9.816-7.459-25.901-7.674-41.456-7.885
		c-4.321-0.058-8.522-0.12-12.479-0.323c-15.08-0.79-30.635-1.183-47.629-1.183c-16.986,0-35.415,0.393-56.254,1.178
		c-16.602,0.628-33.265,2.075-47.223,6.926c13.304,48.37,40.616,92.606,74.054,130.289
		C292.259,761.705,299.197,769.098,306.394,776.422z M734.082,710.443c-0.831-0.943-1.654-1.89-2.469-2.836
		c-9.267-10.833-18.352-28.662-21.09-47.315c-5.646,9.243-12.132,17.864-19.536,25.591c5.092,4.728,9.875,9.77,14.448,14.604
		c3.089,3.267,6.091,6.446,9.03,9.332c24.346,23.887,48.836,50.449,79.413,86.124c14.726,17.184,28.631,35.456,36.084,55.092
		c17.879-11.454,35.312-23.522,51.702-36.643c-12.099-2.773-24.566-8.214-37.514-16.452
		C809.241,775.728,765.18,745.714,734.082,710.443z M582.921,743.506c0.116-1.373,0.236-2.725,0.368-4.065
		c0.748-7.596,2.886-16.424,6.38-25.306c-7.931-2.894-15.352-7.094-21.818-12.856c-12.364-11.018-20.263-26.135-31.308-38.475
		c-15.235-17.021-36.087-28.363-50.826-45.815c-11.834-14.013-18.559-30.331-21.259-47.74c-12.56,6.775-26.086,10.756-37.051,11.833
		c-1.348,0.132-2.704,0.256-4.065,0.368c-8.489,0.707-17.172,1.025-25.942,1.025c-43.503,0-89.333-7.827-126.145-15.129
		c-30.873-6.12-53.26-18.602-67.793-37.807c-1.807,23.617-1.229,47.362,2.788,70.677c0.175,1.016,0.404,2.018,0.592,3.03
		c15.858-5.099,33.608-6.682,51.189-7.345c42.349-1.6,74.969-1.6,105.785,0.017c3.697,0.19,7.62,0.24,11.66,0.294
		c18.098,0.244,38.611,0.521,53.984,12.202c9.99,7.596,16.056,18.871,17.552,32.616c2.667,24.515-9.2,51.082-21.352,65.392
		c-0.819,0.963-1.642,1.923-2.481,2.874c-28.561,32.62-68.115,60.723-101.31,82.326c8.03,7.647,16.333,15.176,24.868,22.559
		c4.137-5.378,8.489-10.655,12.923-15.829c30.56-35.659,55.051-62.225,79.409-86.128c2.948-2.894,5.954-6.074,9.051-9.345
		c13.633-14.41,29.084-30.742,49.304-34.737c13.277-2.605,26.5,0.616,38.26,9.357c20.926,15.547,32.587,44.255,34.567,64.35
		c0.132,1.344,0.252,2.692,0.368,4.044c0,0.008,0,0.017,0,0.021c4.217,50.561-5.297,107.836-14.054,152.091
		c-2.262,11.429-5.416,21.67-9.434,30.813c20.657,3.537,41.901,4.702,62.873,4.993c-5.781-10.896-10.132-23.582-13.029-38.208
		C588.218,851.346,578.704,794.062,582.921,743.506z M903.188,354.555c-0.414-0.008-0.831-0.017-1.245-0.017
		c-24.147,0-48.026,17.594-70.267,36.668c-35.158,30.147-61.303,54.261-84.772,78.194c-2.535,2.583-5.301,5.225-8.132,7.913
		c0.141,0.486,0.314,0.965,0.449,1.452c7.279,26.278,8.207,53.796,4.757,80.926c6.842,2.693,13.681,4.405,19.547,4.979
		c1.249,0.124,2.493,0.24,3.742,0.343c47.96,3.961,103.338-5.268,146.224-13.769c35.824-7.108,56.713-23.184,65.748-50.598
		c3.436-10.43,5.322-21.107,5.912-31.731c-3.715-19.452-8.238-38.686-13.333-57.468c-0.995-3.666-2.017-7.33-3.056-10.991
		c-8.054-13.542-18.835-25.267-32.046-33.981C925.14,358.839,913.856,354.828,903.188,354.555z M285.139,328.733
		c31.586-0.91,59.996,19.587,85.835,41.745c35.63,30.556,62.188,55.055,86.104,79.434c2.886,2.948,6.066,5.95,9.332,9.043
		c5.117,4.843,10.468,9.924,15.43,15.358c3.412-7.244,7.217-14.305,11.314-21.124c-6.432-3.621-12.119-7.721-16.589-11.853
		c-0.955-0.885-1.906-1.778-2.853-2.679c-0.004-0.004-0.008-0.008-0.012-0.012c-35.349-33.674-65.52-81.299-87.861-119.029
		c-21.923-37.031-24.474-70.333-7.802-101.808c4.729-8.931,10.341-17.158,16.634-24.637c-11.666,8.318-22.903,17.2-33.616,26.602
		c-9.914,8.701-19.44,17.836-28.564,27.355c-24.416,25.473-45.84,53.776-63.993,84.046
		C274.077,329.689,279.632,328.873,285.139,328.733z M488.292,423.309c0.881,0.835,1.757,1.662,2.642,2.481
		c3.703,3.423,8.543,6.793,13.967,9.703c12.265-16.817,26.228-31.302,40.541-41.788c6.629-4.856,13.452-8.752,20.389-11.834
		c0.037-2.502,0.092-4.959,0.194-7.323c1.439-32.818,1.286-67.691-0.488-113.071c-1.145-29.225-4.433-58.648-20.6-75.928
		c-6.959-7.43-16.849-12.839-29.399-16.072c-44.83-11.553-94.799,12.934-118.798,58.239c-13.112,24.759-10.788,50.536,7.315,81.117
		C425.699,345.38,454.828,391.425,488.292,423.309z M275.373,546.58c42.878,8.505,98.248,17.751,146.216,13.773
		c0.004,0,0.004,0,0.008,0c1.249-0.103,2.493-0.219,3.734-0.343c11.321-1.111,26.233-6.46,37.836-14.924
		c0.659-16.005,4.11-32.437,9.618-48.48c-5.703-7.847-13.604-15.344-20.928-22.278c-3.465-3.279-6.831-6.467-9.895-9.589
		c-23.469-23.932-49.614-48.047-84.768-78.194c-22.241-19.074-46.124-36.668-70.263-36.668c-0.418,0-0.835,0.008-1.253,0.017
		c-10.668,0.273-21.952,4.284-33.533,11.921c-0.304,0.201-0.579,0.438-0.881,0.642c-19.866,39.552-34.295,81.826-42.295,125.364
		c-0.225,1.227-0.403,2.465-0.618,3.694c0.428,1.49,0.787,2.99,1.275,4.471C218.66,523.401,239.549,539.477,275.373,546.58z
		 M520.824,148.976c16.502,4.255,29.816,11.689,39.57,22.105c20.906,22.34,24.995,56.25,26.297,89.569
		c1.791,45.804,1.945,81.113,0.504,114.421c8.205-1.649,16.467-2.295,24.685-1.969c-1.006-30.388-0.722-63.08,0.889-104.257
		c1.302-33.318,5.392-67.232,26.297-89.564c9.754-10.424,23.068-17.862,39.574-22.109c54.241-13.98,114.266,14.972,142.784,68.828
		c16.672,31.474,14.116,64.78-7.802,101.812c-22.336,37.726-52.508,85.343-87.861,119.025c-0.023,0.022-0.047,0.043-0.069,0.065
		c1.697,2.941,3.304,5.925,4.783,8.965c0.43-0.429,0.893-0.868,1.311-1.294c23.916-24.379,50.474-48.878,86.108-79.434
		c25.834-22.159,54.042-42.572,85.831-41.745c14.691,0.372,29.713,5.557,44.648,15.41c1.724,1.137,3.334,2.412,4.989,3.632
		c-7.947-21.752-17.284-42.921-28.692-62.939c-4.316-7.573-8.902-14.996-13.853-22.205c-49.646-72.3-141.061-122.901-225.79-141.806
		c-68.573-15.3-140.169-5.892-205.446,20.79C493.304,144.674,507.248,145.478,520.824,148.976z M1124.596,522.702
		c-8.703,45.418-17.495,91.127-32.782,134.686c-3.103,41.02-9.564,80.65-19.383,117.947
		c-23.519,89.312-80.112,167.493-163.669,226.088c-75.787,53.149-170.26,87.125-266.018,95.663
		c-15.394,1.373-30.854,2.051-46.318,2.051c-146.948,0-294.929-61.179-403.476-168.556c-34.766-34.389-63.742-71.466-86.12-110.197
		c-7.952-13.762-15.067-28.036-21.364-42.735c4.372,16.663,8.436,30.324,10.071,35.616
		c27.166,87.919,77.256,170.315,148.122,229.749c81.295,68.18,179.02,89.336,282.825,93.751
		c144.88,6.162,299.594-14.719,411.565-106.865c70.758-58.231,118.267-140.3,150.529-226.225c1.187-3.161,2.4-6.315,3.546-9.485
		C1123.467,707.464,1141.125,613.425,1124.596,522.702z M207.835,915.531c104.599,103.47,247.118,162.432,388.529,162.441
		c14.869,0,29.7-0.653,44.503-1.972c168.461-15.022,360.908-115.486,411.089-306.056c3.924-14.9,7.289-30.193,10.11-45.807
		c-18.377,34.185-40.153,66.664-61.822,98.941c-19.348,28.82-38.79,57.761-62.191,83.399c-22.454,24.6-48.354,45.916-75.933,64.59
		c-117.775,79.748-269.884,109.664-407.301,72.96c-84.831-22.658-162.094-69.206-227.921-127.313
		c-73.207-64.622-118.926-137.922-147.214-229.62c8.647,43.777,23.834,85.236,45.481,122.697
		C146.594,846.893,174.413,882.469,207.835,915.531z"/>
	<path d="M547.132,928.816c4.018-9.143,7.172-19.384,9.434-30.813c8.758-44.255,18.272-101.531,14.054-152.091
		c0-0.004,0-0.012,0-0.021c-0.116-1.352-0.236-2.7-0.368-4.044c-1.981-20.095-13.641-48.803-34.567-64.35
		c-11.759-8.741-24.983-11.962-38.26-9.357c-20.219,3.994-35.671,20.327-49.304,34.737c-3.097,3.271-6.103,6.45-9.051,9.345
		c-24.358,23.903-48.849,50.47-79.409,86.128c-4.434,5.174-8.786,10.451-12.923,15.829c-16.524,21.483-29.444,44.65-28.789,70.014
		c0.04,1.57,0.162,3.146,0.312,4.723c1.251,13.179,6.302,26.582,15.107,39.921c24.342,36.879,67.997,58.14,113.398,58.14
		c15.051,0,30.296-2.336,45.09-7.215c4.233-1.396,8.255-3.026,12.086-4.872C523.417,965.506,537.71,950.253,547.132,928.816z
		 M485.223,959.658c-5.911,1.95-11.906,3.383-17.923,4.404c-45.4,7.709-92.211-10.442-116.26-46.886
		c-2.121-3.212-3.933-6.398-5.493-9.558c-4.061-8.229-6.239-16.259-6.436-23.968c-0.489-18.983,10.082-37.822,23.856-55.849
		c4.05-5.3,8.363-10.534,12.77-15.676c30.151-35.183,54.257-61.336,78.161-84.797c3.126-3.064,6.318-6.438,9.601-9.903
		c11.453-12.111,24.437-25.834,38.024-28.514c1.658-0.327,3.3-0.492,4.92-0.492c5.673,0,11.147,2.005,16.614,6.066
		c14.898,11.069,24.577,33.732,26.124,49.44c0.124,1.249,0.236,2.506,0.343,3.763c3.994,47.935-5.235,103.313-13.724,146.203
		c-2.31,11.663-5.59,21.717-9.884,30.321C517.02,942.04,503.71,953.559,485.223,959.658z M313.951,796.737
		c2.588-1.658,5.24-3.373,7.919-5.118c33.196-21.603,72.75-49.706,101.31-82.326c0.839-0.951,1.662-1.91,2.481-2.874
		c12.152-14.311,24.019-40.877,21.352-65.392c-1.497-13.744-7.563-25.02-17.552-32.616c-15.373-11.681-35.886-11.958-53.984-12.202
		c-4.04-0.054-7.964-0.103-11.66-0.294C333,594.3,300.38,594.3,258.031,595.901c-17.581,0.662-35.331,2.245-51.189,7.345
		c-12.058,3.878-23.026,9.784-31.979,18.891c-9.547,9.717-16.328,22.977-20.157,39.413c-0.683,2.939-1.198,5.903-1.649,8.872
		c-7.815,51.465,18.798,106.548,65.768,133.726c5.905,3.415,11.93,6.001,18.062,7.829c7.06,2.104,14.261,3.19,21.603,3.19
		C276.237,815.166,294.782,809.018,313.951,796.737z M229.427,785.821c-14.511-8.395-26.656-19.972-35.984-33.337
		c-3.068-4.395-5.822-8.975-8.244-13.719c-11.437-22.403-15.514-48.153-9.872-72.42c2.932-12.586,7.856-22.469,14.637-29.366
		c5.836-5.938,13.251-10.084,21.643-13c13.958-4.851,30.621-6.298,47.223-6.926c20.84-0.786,39.268-1.178,56.254-1.178
		c16.994,0,32.549,0.393,47.629,1.183c3.957,0.203,8.158,0.265,12.479,0.323c15.555,0.211,31.64,0.426,41.456,7.885
		c5.322,4.044,8.456,10.118,9.32,18.053c1.881,17.296-7.066,38.359-16.436,49.391c-0.736,0.868-1.484,1.737-2.241,2.593
		c-0.004,0.012-0.012,0.021-0.021,0.029c-28.01,32-68.07,59.922-100.875,81.091c-1.292,0.834-2.596,1.678-3.864,2.49
		C275.005,796.551,251.78,798.759,229.427,785.821z M612.526,396.395c0.157,19.438,0.335,41.468,11.73,57.797
		c7.596,10.887,19.02,17.441,33.037,18.958c2.187,0.236,4.383,0.347,6.591,0.347c22.675,0,45.959-11.9,59.008-23.97
		c0.936-0.863,1.865-1.736,2.8-2.626c0.023-0.022,0.046-0.043,0.069-0.065c35.353-33.682,65.525-81.299,87.861-119.025
		c21.919-37.031,24.474-70.337,7.802-101.812c-28.518-53.856-88.543-82.808-142.784-68.828
		c-16.506,4.246-29.82,11.685-39.574,22.109c-20.906,22.332-24.995,56.246-26.297,89.564c-1.611,41.177-1.895,73.869-0.889,104.257
		c0.118,3.547,0.249,7.069,0.401,10.563C612.46,387.7,612.493,391.988,612.526,396.395z M633.924,269.671
		c1.145-29.225,4.433-58.652,20.6-75.928c6.959-7.434,16.849-12.843,29.399-16.072c7.451-1.919,15.043-2.845,22.63-2.845
		c38.094,0,76.159,23.304,96.168,61.08c13.112,24.763,10.788,50.54-7.315,81.121c-21.106,35.643-49.347,80.282-81.77,112.042
		c-0.823,0.806-1.636,1.642-2.464,2.431c-0.881,0.835-1.757,1.662-2.646,2.481c-10.986,10.159-31.913,19.979-48.956,18.119
		c-7.972-0.86-13.848-4.139-17.949-10.023c-7.641-10.949-7.79-29.49-7.922-45.851c-0.037-4.668-0.074-9.208-0.26-13.488
		c-0.098-2.232-0.187-4.477-0.27-6.731C632.027,345.124,632.271,311.96,633.924,269.671z M515.176,607.412
		c5.822-0.934,11.871,0.571,17.036,4.238c6.136,4.366,11.015,11.044,15.373,17.606c6.963,10.482,13.215,21.58,18.582,32.979
		c1.687,3.589,5.243,5.933,9.204,6.07c0.124,0.004,0.248,0.008,0.372,0.008c3.825,0,7.36-2.063,9.237-5.417
		c12.45-22.245,34.712-38.975,59.546-44.755c0.008-0.004,0.012-0.004,0.017-0.004c0.004-0.004,0.004,0,0.004-0.004
		c5.694-1.323,9.237-7.013,7.914-12.706c-0.674-2.894-2.477-5.235-4.838-6.661c-2.088-6.273-3.878-22.795-3.759-26.971
		c0.831-9.481,4.875-16.738,9.994-25.921c0.823-1.48,1.658-2.973,2.485-4.499c1.67-3.064,1.72-6.748,0.141-9.857
		c-1.58-3.109-4.59-5.239-8.046-5.698l-2.783-0.36c-9.68-1.253-14.538-1.881-22.733-6.715c-8.402-4.962-8.402-4.962-13.161-13.066
		c-1.034-1.948-5.404-11.793-6.33-14.604c-0.719-4.395-4.168-7.968-8.712-8.724c-5.239-0.848-10.333,2.295-11.867,7.393
		c-3.581,11.896-17.916,18.156-23.908,20.298c-10.887,3.883-30.461,8.654-38.838,7.575c-3.721-0.496-7.414,1.03-9.721,3.982
		c-2.307,2.956-2.878,6.909-1.501,10.399c2.539,6.434,3.568,14.029,3.147,23.217l-0.099,2.262
		c-0.351,8.096-1.174,27.058-6.07,32.148c-3.159,3.279-3.866,8.216-1.753,12.252C506.22,605.911,510.686,608.127,515.176,607.412z
		 M532.332,538.261c16.138-2.063,33.492-8.199,33.728-8.282c10.081-3.597,18.479-8.613,24.859-14.724
		c0.335,0.666,0.546,1.067,0.571,1.112c6.599,11.243,8.357,13.335,20.67,20.608c6.988,4.122,12.731,6.202,18.408,7.488
		c-3.759,7.451-6.922,15.555-7.79,25.487c-0.021,0.236,0.095,17.871,3.73,31.553c-19.223,7.137-36.535,19.603-49.457,35.535
		c-3.684-6.665-7.637-13.182-11.826-19.492c-5.487-8.261-11.792-16.779-20.744-23.151c-4.594-3.262-9.601-5.607-14.799-6.984
		c2.564-9.746,3.035-20.662,3.399-29.018l0.095-2.208C533.473,549.748,533.196,543.802,532.332,538.261z M903.726,333.393
		c-31.789-0.827-59.996,19.587-85.831,41.745c-35.634,30.556-62.192,55.055-86.108,79.434c-0.418,0.427-0.881,0.865-1.311,1.294
		c-2.536,2.533-5.224,5.103-8.017,7.745c-14.41,13.645-30.747,29.105-34.728,49.333c-2.613,13.273,0.628,26.5,9.37,38.255
		c10.609,14.269,27.336,24.216,43.274,29.73c7.43,2.571,14.69,4.185,21.076,4.812c1.356,0.132,2.717,0.256,4.073,0.368
		c8.489,0.707,17.164,1.025,25.938,1.025c43.494,0,89.333-7.827,126.149-15.125c36.896-7.317,61.688-23.709,75.399-49.831
		c2.45-4.669,4.59-9.611,6.335-14.908c18.895-57.339-0.479-121.305-45.981-154.835c-1.656-1.22-3.265-2.495-4.989-3.632
		C933.439,338.95,918.417,333.765,903.726,333.393z M968.763,400.457c11.918,20.04,17.744,44.091,16.388,68.458
		c-0.59,10.624-2.476,21.302-5.912,31.731c-9.035,27.414-29.924,43.49-65.748,50.598c-42.886,8.501-98.264,17.73-146.224,13.769
		c-1.249-0.103-2.493-0.219-3.742-0.343c-5.867-0.575-12.705-2.286-19.547-4.979c-11.473-4.516-22.957-11.794-29.893-21.124
		c-5.226-7.029-7.05-14.075-5.582-21.534c2.675-13.591,16.399-26.583,28.51-38.044c0.597-0.566,1.168-1.115,1.759-1.676
		c2.831-2.688,5.597-5.33,8.132-7.913c23.469-23.932,49.614-48.047,84.772-78.194c22.241-19.074,46.12-36.668,70.267-36.668
		c0.414,0,0.831,0.008,1.245,0.017c10.668,0.273,21.952,4.284,33.529,11.921C949.929,375.19,960.71,386.915,968.763,400.457z
		 M192.949,930.582c108.547,107.377,256.529,168.556,403.476,168.556c15.464,0,30.924-0.678,46.318-2.051
		c95.758-8.538,190.231-42.514,266.018-95.663c83.557-58.595,140.15-136.776,163.669-226.088
		c9.819-37.298,16.28-76.928,19.383-117.947c3.831-50.647,2.531-103.42-4.051-156.609
		c-17.66-142.689-85.554-268.627-186.274-345.535c-60.27-46.015-129.368-72.936-200.547-85.133
		c-126.815-21.731-260.26,3.456-362.344,51.955C217.345,179.673,118.63,298.652,74.544,440.344
		C38.206,557.123,42.522,677.406,85.465,777.649c6.297,14.698,13.412,28.973,21.364,42.735
		C129.207,859.115,158.184,896.192,192.949,930.582z M79.682,687.094c-15.018-76.022-10.254-159.06,15.074-240.46
		c42.365-136.147,136.916-250.331,252.931-305.448c153.572-72.951,380.4-91.698,540.951,30.887
		c83.987,64.124,144.115,164.272,169.334,279.844c3.676,16.848,6.619,34.019,8.777,51.458c8.27,66.801,7.989,132.843-0.552,194.555
		c-1.22,8.821-2.573,17.573-4.133,26.205c-2.821,15.614-6.186,30.907-10.11,45.807c-50.18,190.57-242.627,291.034-411.089,306.056
		c-14.803,1.319-29.634,1.972-44.503,1.972c-141.411-0.008-283.93-58.971-388.529-162.441
		c-33.422-33.062-61.241-68.638-82.672-105.74C103.516,772.33,88.329,730.871,79.682,687.094z M714.466,709.819
		c-2.94-2.886-5.942-6.066-9.03-9.332c-4.572-4.834-9.356-9.875-14.448-14.604c-10.097-9.375-21.428-17.493-34.877-20.145
		c-13.252-2.605-26.496,0.62-38.255,9.353c-13.015,9.669-22.441,24.431-28.188,39.044c-3.493,8.883-5.631,17.711-6.38,25.306
		c-0.132,1.34-0.252,2.692-0.368,4.065c-4.218,50.557,5.297,107.84,14.054,152.095c2.896,14.626,7.248,27.313,13.029,38.208
		c11.412,21.505,28.496,35.902,51.681,43.545c14.799,4.883,30.039,7.219,45.094,7.219c45.396,0,89.048-21.261,113.393-58.14
		c9.857-14.935,15.047-29.953,15.419-44.64c0.273-10.629-1.873-20.864-5.629-30.759c-7.453-19.636-21.358-37.909-36.084-55.092
		C763.303,760.268,738.812,733.706,714.466,709.819z M814.43,881.253c-0.273,10.664-4.284,21.944-11.925,33.521
		c-27.244,41.27-83.681,59.136-134.188,42.477c-14.027-4.625-25.065-12.379-33.469-23.624
		c-8.021-10.732-13.643-24.643-17.108-42.136c-8.489-42.899-17.722-98.293-13.723-146.203c0.107-1.261,0.219-2.514,0.343-3.767
		c0.672-6.825,2.883-14.962,6.386-22.89c4.56-10.32,11.312-20.288,19.738-26.546c7.029-5.226,14.067-7.062,21.534-5.574
		c7.916,1.561,15.625,6.88,22.948,13.436c5.25,4.699,10.304,10.03,15.088,15.086c3.275,3.465,6.463,6.831,9.585,9.895
		c23.891,23.449,48.001,49.597,78.165,84.793c14.457,16.867,28.049,34.681,33.778,52.833
		C813.54,868.756,814.59,874.996,814.43,881.253z M271.255,567.345c36.812,7.302,82.643,15.129,126.145,15.129
		c8.77,0,17.453-0.318,25.942-1.025c1.36-0.112,2.717-0.236,4.065-0.368c10.966-1.076,24.492-5.058,37.051-11.833
		c10.457-5.64,20.246-13.21,27.312-22.714c8.737-11.755,11.979-24.983,9.365-38.251c-2.568-13.045-10.281-24.1-19.294-33.97
		c-4.962-5.434-10.313-10.515-15.43-15.358c-3.267-3.093-6.446-6.095-9.332-9.043c-23.916-24.379-50.474-48.878-86.104-79.434
		c-25.839-22.159-54.249-42.655-85.835-41.745c-5.508,0.14-11.062,0.956-16.642,2.441c-9.301,2.476-18.672,6.811-28.01,12.97
		c-49.113,32.396-70.548,99.041-50.966,158.467c3.339,10.137,8.001,19.079,13.941,26.928
		C217.995,548.743,240.382,561.226,271.255,567.345z M251.263,362.458c0.302-0.204,0.576-0.441,0.881-0.642
		c11.582-7.637,22.866-11.648,33.533-11.921c0.418-0.008,0.835-0.017,1.253-0.017c24.139,0,48.022,17.594,70.263,36.668
		c35.154,30.147,61.299,54.261,84.768,78.194c3.064,3.122,6.43,6.31,9.895,9.589c7.324,6.934,15.225,14.431,20.928,22.278
		c3.724,5.124,6.521,10.395,7.577,15.763c1.468,7.463-0.356,14.505-5.582,21.534c-3.094,4.163-7.112,7.9-11.613,11.183
		c-11.602,8.464-26.515,13.813-37.836,14.924c-1.24,0.124-2.485,0.24-3.734,0.343c-0.004,0-0.004,0-0.008,0
		c-47.968,3.978-103.338-5.268-146.216-13.773c-35.824-7.104-56.713-23.18-65.748-50.594c-0.488-1.481-0.847-2.981-1.275-4.471
		C194.259,442.549,211.832,389.1,251.263,362.458z M900.331,597.104c-42.721-1.617-75.581-1.625-106.542-0.033
		c-3.73,0.194-7.682,0.24-11.751,0.294c-15.801,0.204-33.431,0.445-47.915,8.116c-2.208,1.169-4.348,2.5-6.391,4.041
		c-10.064,7.596-16.175,18.888-17.672,32.653c-0.651,5.987-0.419,12.095,0.465,18.119c2.737,18.652,11.823,36.482,21.09,47.315
		c0.815,0.947,1.637,1.894,2.469,2.836c31.098,35.27,75.159,65.285,110.069,87.497c12.948,8.238,25.416,13.68,37.514,16.452
		c6.148,1.409,12.208,2.175,18.174,2.175c13.736,0,27.017-3.734,39.996-11.185c50.031-28.725,77.16-88.7,64.512-142.606
		c-2.832-12.09-7.295-22.452-13.285-30.967c-2.151-3.058-4.488-5.892-7.033-8.462C963.172,602.281,931.474,598.282,900.331,597.104z
		 M929.291,787.025c-8.229,4.726-16.579,7.407-25.212,8.079c-15.026,1.17-30.916-3.797-48.566-15.026
		c-33.732-21.46-76.213-50.362-105.554-83.635c-0.773-0.877-1.538-1.757-2.278-2.617c-9.44-11.032-18.454-32.082-16.577-49.362
		c0.877-8.038,3.94-13.943,9.374-18.04c9.915-7.476,26.872-7.695,41.836-7.889c4.346-0.058,8.576-0.116,12.562-0.318
		c15.018-0.777,30.515-1.162,47.451-1.162c17.246,0,35.977,0.401,57.201,1.203c26.806,1.017,53.769,4.139,69.457,19.984
		c6.667,6.736,11.533,16.306,14.506,28.426c0.079,0.32,0.172,0.621,0.247,0.944C994.299,712.627,971.404,762.848,929.291,787.025z
		 M385.839,319.616c22.34,37.73,52.512,85.355,87.861,119.029c0.004,0.004,0.008,0.008,0.012,0.012
		c0.947,0.901,1.898,1.795,2.853,2.679c4.47,4.132,10.157,8.231,16.589,11.853c12.357,6.957,27.514,12.117,42.427,12.117
		c2.204,0,4.408-0.116,6.591-0.351c14.013-1.513,25.437-8.067,33.037-18.954c11.387-16.324,11.565-38.346,11.722-57.776
		c0.037-4.412,0.07-8.708,0.248-12.752c0.006-0.134,0.01-0.269,0.017-0.403c1.441-33.308,1.287-68.618-0.504-114.421
		c-1.302-33.318-5.392-67.228-26.297-89.569c-9.754-10.416-23.068-17.85-39.57-22.105c-13.577-3.497-27.52-4.302-41.243-2.7
		c-31.985,3.735-62.757,20.568-84.911,46.895c-6.293,7.478-11.905,15.706-16.634,24.637
		C361.365,249.282,363.916,282.584,385.839,319.616z M396.742,227.715c23.999-45.305,73.968-69.792,118.798-58.239
		c12.549,3.233,22.44,8.642,29.399,16.072c16.167,17.279,19.454,46.703,20.6,75.928c1.774,45.38,1.927,80.253,0.488,113.071
		c-0.102,2.364-0.157,4.821-0.194,7.323c-0.031,2.032-0.052,4.09-0.07,6.185c-0.132,16.353-0.281,34.89-7.914,45.83
		c-4.106,5.884-9.977,9.159-17.949,10.023c-11.335,1.223-24.32-2.688-34.997-8.416c-5.425-2.91-10.265-6.281-13.967-9.703
		c-0.885-0.819-1.761-1.646-2.642-2.481c-33.463-31.884-62.593-77.929-84.235-114.477
		C385.955,278.251,383.631,252.474,396.742,227.715z"/>
</g>
</svg>
