<?xml version="1.0" encoding="utf-8"?>
<!-- Generator: Adobe Illustrator 23.0.3, SVG Export Plug-In . SVG Version: 6.00 Build 0)  -->
<svg version="1.1" id="Capa_1" xmlns="http://www.w3.org/2000/svg" xmlns:xlink="http://www.w3.org/1999/xlink" x="0px" y="0px"
	 viewBox="0 0 1200 1200" enable-background="new 0 0 1200 1200" xml:space="preserve">
<g>
	<path fill="#3FAD80" d="M537.4,338.247c-41.002-17.124-82.667-39.721-110.577-87.826c-11.568-19.946-19.266-41.568-23.043-63.434
		c24.939,11.403,51.024,20.303,77.756,26.418c35.294,8.075,71.643,11.389,106.456,21.335c34.813,9.946,69.116,27.711,89.369,57.722
		c19.943,29.552,13.617,54.149,8.732,86.169c-0.042,0.277-0.038,0.528-0.076,0.802c-7.431-3.672-14.912-7.045-22.396-10.131
		c-11.211-37.943-46.065-64.052-71.904-80.624c-4.429-2.839-8.922-5.649-13.423-8.462c-25.479-15.923-51.823-32.385-67.738-56.584
		c-2.938-4.463-8.926-5.698-13.389-2.764c-4.459,2.934-5.698,8.926-2.764,13.389c18.237,27.73,46.405,45.332,73.643,62.354
		c4.44,2.771,8.866,5.539,13.234,8.341c21.023,13.482,45.115,31.34,57.816,55.187c-25.813-8.699-50.955-14.358-73.24-18.011
		C556.462,340.588,546.956,339.334,537.4,338.247z M800.102,425.614c-14.393,0.035-28.809,1.628-43.177,1.945
		c9.154,8.459,17.874,17.665,25.983,27.744c2.581,3.208,5.095,6.5,7.559,9.878c0.502-0.091,1.007-0.175,1.533-0.185
		c56.588-0.982,113.41,19.804,155.793,57.37c2.005,1.778,3.999,3.602,5.992,5.433c9.575,8.771,18.618,17.055,29.417,20.31
		c5.112,1.541,8.008,6.932,6.468,12.041c-1.257,4.184-5.097,6.883-9.251,6.883c-0.925,0-1.862-0.136-2.79-0.415
		c-15.028-4.527-26.147-14.714-36.901-24.565c-1.918-1.76-3.832-3.511-5.758-5.218c-36.071-31.971-83.515-50.763-131.673-52.405
		c12.372,20.259,23.528,43.894,34.574,72.975c62.078,40.206,138.656,53.056,211.329,38.109
		c-16.504-17.817-30.082-38.171-45.209-57.207C953.99,475.381,880.475,425.418,800.102,425.614z M847.949,585.756
		c5.711,17.284,11.056,35.868,15.572,55.4c2.463,1.083,4.932,2.156,7.439,3.155c34.039,13.565,71.01,18.716,107.652,18.691
		c48.142-0.033,96.264-8.889,141.264-25.996c-20.041-2.568-38.288-12.48-53.963-25.493c-24.976,6.232-50.507,9.376-75.932,9.376
		C940.57,620.891,891.599,609.108,847.949,585.756z M485.944,334.668c-28.606-16.639-55.366-39.258-75.84-74.548
		c-15.099-26.029-24.261-54.704-27.254-83.418c-14.41-7.62-28.363-16.103-41.742-25.415
		c-5.891,63.425,29.894,125.508,79.996,164.842c8.716,6.843,17.833,13.058,27.241,18.783
		C460.896,334.424,473.44,334.346,485.944,334.668z"/>
	<path fill="#FFA840" d="M169.91,695.422c6.42-1.581,13.029-2.345,19.703-2.588c9.466,38.135,26.41,74.399,50.242,105.657
		c3.56,4.669,7.27,9.194,11.086,13.613c-37.7,10.036-82.725,9.691-102.043-8.158v0.004c-8.307-7.676-14.054-19.34-18.082-36.716
		c-4.165-17.958-4.025-31.347,0.434-42.138C137.057,711.042,151.507,699.949,169.91,695.422z M334.977,999.638
		c22.734,4.523,42.814,1.344,58.049-9.202c8.902-6.158,15.909-14.729,20.855-25.249c-33.731-27.924-64.796-59.055-92.561-92.905
		c-3.414-2.168-6.797-4.379-10.128-6.661c-20.235,24.451-33.527,52.603-30.632,73.011
		C284.8,968.548,307.685,994.205,334.977,999.638z M109.903,729.147c0.815-3.986,1.972-7.785,3.48-11.433
		c8.144-19.717,27.552-35.07,51.906-41.066c6.709-1.653,13.467-2.528,20.215-2.942c-3.943-21.916-5.436-44.267-4.373-66.489
		c-0.312-0.76-0.659-1.494-0.942-2.275c-10.117-27.935-0.158-67.669,23.634-96.085c33.836-78.134,99.314-125.819,175.969-147.488
		c-79.224,13.585-154.186,45.861-210.808,100.875C114.916,533.493,97.896,634.677,109.903,729.147z M404.025,1006.337
		c-14.031,9.708-30.886,14.646-49.573,14.646c-7.48,0-15.247-0.793-23.251-2.383c-35.077-6.985-64.427-39.476-69.784-77.257
		c-3.802-26.817,11.397-59.395,34.227-87.043c-10.593-8.19-20.679-17.006-30.146-26.489c-19.969,6.514-42.564,10.471-63.943,10.471
		c-26.079,0-50.335-5.875-65.774-20.133v-0.004c-3.044-2.812-5.796-5.973-8.321-9.463c10.479,32.555,24.634,62.718,42.095,88.57
		c28.985,42.914,65.615,80.071,103.115,115.785c19.33,18.41,39.748,33.521,61.048,45.627c13.8,7.844,27.977,14.401,42.462,19.802
		c72.286,17.002,144.571,18.051,211.161,2.302c5.506-1.303,10.951-2.761,16.362-4.298c-62.642-24.051-121.569-57.604-174.462-98.898
		C422.998,989.271,414.575,999.037,404.025,1006.337z"/>
	<path fill="#FF4B44" d="M553.283,667.017c-14.129-13.974-11.509-51.978,7.382-107.003c7.042-20.514,17.754-45.672,38.275-58.28
		c9.704-5.958,20.661-8.48,31.796-8.48c18.856,0,38.226,7.231,52.888,17.24c19.808,13.529,41.262,39.457,36.531,68.017
		c-3.228,19.51-18.173,37.633-45.687,55.41c-20.631,13.329-42.821,24.26-65.956,32.487
		C589.772,673.073,564.976,678.586,553.283,667.017z M662.216,923.327c-1.737-3.643-3.878-7.398-6.537-11.287
		c-24.203-35.398-77.464-70.838-118.734-78.997c-4.448-0.88-8.597-1.318-12.43-1.318c-10.368,0-18.46,3.209-24.146,9.598
		c-15.183,17.052-13.045,52.948-4.637,79.084c1.374,4.273,2.841,8.693,4.413,13.158c4.085,0.496,8.171,0.959,12.256,1.352
		C562.355,939.722,614.246,937.135,662.216,923.327z M425.058,918.354c4.728-27.398,9.521-62.67,0.485-82.495
		c-9.047-19.846-24.267-26.332-46.541-19.827c-23.665,6.914-48.801,26.619-67.811,49.59c3.331,2.282,6.714,4.494,10.128,6.661
		C353.097,892.461,388.344,907.729,425.058,918.354z M720.181,697.253c-3.123,0-6.166,0.117-9.058,0.31
		c-34.975,2.345-68.867,13.004-94.482,22.032c-3.655,1.284-8.945,2.658-15.069,4.248c-11.033,2.866-40.341,10.474-43.762,16.957
		c-2.175,4.119-2.209,8.375-0.109,13.393c13.162,31.418,97.268,68.871,127.01,77.8c9.466,2.839,19.528,5.309,28.911,4.089
		c23.493-3.036,45.151-22.088,56.528-49.727c11.074-26.906,9.194-54.874-4.909-72.994
		C755.262,700.538,736.635,697.253,720.181,697.253z M485.692,430.931c-15.87-9.983-38.513-10.765-62.108-2.175
		c-16.051,5.849-27.631,14.072-34.417,24.441c-10.565,16.134-10.47,40.832,0.238,62.916c18.547,38.253,55.463,78.099,80.466,76.622
		c12.758-0.785,23.161-12.709,30.92-35.447c7.654-22.424,14.575-46.42,13.404-69.988
		C512.987,462.825,502.064,441.224,485.692,430.931z M250.941,812.104c20.577-5.478,38.98-14.037,49.812-24.556
		c12.26-11.905,16.308-23.553,12.373-35.606c-9.243-28.322-58.064-52.435-87.614-56.592c-11.735-1.656-23.925-2.953-35.9-2.517
		c9.466,38.135,26.41,74.399,50.242,105.657C243.415,803.16,247.125,807.685,250.941,812.104z M820.93,567.222
		c12.414,33.133,24.32,72.882,31.054,115.788c-5.162,79.088-43.205,156.177-107.859,201.761
		c-19.633,13.843-41.011,24.506-63.437,32.546c-2.334-5.303-5.298-10.696-9.053-16.189c-27.11-39.657-84.627-77.891-130.937-87.047
		c-29.512-5.834-46.061,4.607-54.768,14.386c-20.34,22.851-18.977,65.616-8.601,97.861c0.437,1.359,0.905,2.762,1.358,4.145
		c-11.691-1.946-23.337-4.305-34.876-7.123c5.453-31.182,10.931-70.04-0.68-95.51c-12.951-28.424-38.294-39.499-69.55-30.361
		c-26.257,7.67-55.713,29.911-77.937,56.823c-10.593-8.19-20.679-17.006-30.146-26.489c20.324-6.63,37.927-15.909,48.724-26.396
		c22.209-21.571,21.658-42.074,17.286-55.474c-12.162-37.252-68.799-64.88-103.298-69.735c-13.779-1.943-28.217-3.391-42.705-2.5
		c-3.943-21.916-5.436-44.267-4.373-66.489c10.382,25.256,36.659,39.188,55.808,47.509c32.419,14.088,66.533,24.025,101.395,29.542
		c3.3,0.525,6.834,0.997,10.451,0.997c4.448,0,9.02-0.714,13.434-2.915c12.109-6.038,17.788-20.159,15.994-39.767
		c-4.357-47.469-39.85-147.328-102.139-163.039c-23.78-6.011-49.085,3.485-69.448,26.008c-0.969,1.072-1.876,2.198-2.804,3.305
		c33.836-78.134,99.314-125.819,175.969-147.488c29.975-5.14,60.55-7.643,90.979-7.643c31.079,0,62.021,2.571,91.96,7.476
		c26.113,4.281,56.322,11.421,86.703,23.238c1.625,1.406,3.69,2.251,5.895,2.346c40.821,16.701,81.496,42.077,112.515,80.637
		C788.156,492.676,804.532,523.457,820.93,567.222z M519.089,563.533c8.273-24.244,15.745-50.373,14.416-77.189
		c-1.541-31.143-15.568-57.974-37.52-71.778c-20.967-13.181-49.765-14.631-79.016-3.972c-20.061,7.306-34.854,18.079-43.977,32.015
		c-17.244,26.34-11.814,59.597-0.978,81.939c16.663,34.364,57.169,87.561,96.423,87.561c0.872,0,1.752-0.026,2.62-0.079
		C492.394,610.719,508.554,594.404,519.089,563.533z M539.69,680.764c8.273,8.182,19.604,12.275,33.88,12.275
		c11.811,0,25.641-2.805,41.421-8.416c24.539-8.726,48.081-20.321,69.966-34.466c32.347-20.895,50.101-43.297,54.273-68.489
		c6.215-37.539-20.197-70.4-44.702-87.138c-34.749-23.731-76.233-27.363-105.707-9.266c-25.762,15.824-38.351,44.906-46.439,68.474
		C520.324,617.976,519.421,660.715,539.69,680.764z M780.495,701.49c-13.525-17.38-37.958-25.419-70.664-23.214
		c-37.316,2.496-72.839,13.65-99.617,23.081c-2.881,1.016-7.801,2.296-13.502,3.776c-27.533,7.148-49.142,13.646-55.999,26.642
		c-4.875,9.236-5.165,19.57-0.842,29.885c18.381,43.871,121.139,83.4,139.282,88.848c9.228,2.771,19.056,5.229,29.293,5.229
		c2.526,0,5.078-0.151,7.654-0.483c30.357-3.923,57.917-27.503,71.929-61.546C801.734,760.404,798.849,725.066,780.495,701.49z
		 M244.641,636.995c30.924,13.438,63.464,22.919,96.713,28.179c4.599,0.733,9.338,1.322,12.241-0.125
		c5.12-2.552,6.128-12.37,5.369-20.703c-4.754-51.736-41.247-134.362-87.618-146.059c-16.625-4.195-34.971,3.187-50.384,20.231
		c-20.971,23.191-30.686,57.517-22.598,79.839C205.425,617.844,226.804,629.243,244.641,636.995z"/>
	<path d="M1149.848,569.684c-0.725-4.029-3.904-7.163-7.941-7.831c-47.345-7.808-82.89-41.636-120.524-77.453
		c-30.437-28.964-61.908-58.914-100.984-75.256c-58.638-24.516-124.613-14.446-181.424-1.367c-1.391,0.321-2.627,0.944-3.691,1.76
		c-7.522-5.643-15.235-10.876-23.094-15.694c6.751-37.489,12.231-80.448-3.753-119.706c-16.708-41.02-53.269-67.368-81.002-82.248
		c-23.859-12.8-49.444-22.077-74.183-31.045c-9.821-3.561-19.974-7.242-29.806-11.074c-40.832-15.9-80.255-35.923-117.171-59.518
		c-2.488-1.586-5.562-1.956-8.345-0.997c-2.787,0.955-4.984,3.13-5.973,5.909c-9.09,25.612-12.02,53.594-9.107,81.539
		c2.993,28.714,12.154,57.388,27.254,83.418c20.474,35.29,47.234,57.909,75.84,74.548c-12.504-0.322-25.048-0.244-37.599,0.244
		c-154.653,6.011-309.104,74.531-371.634,231.861c-28.855,72.601-34.549,159.26-16.028,244.011
		c11.807,54.028,38.653,129.982,99.481,185.003c22.749,20.582,50.305,38.517,86.719,56.441
		c79.269,39.015,162.579,59.046,242.384,59.042c35.062,0,69.46-3.866,102.521-11.69c122.128-28.889,223.052-113.561,263.385-220.971
		c30.258-80.581,24.991-165.471,8.348-237.454c-4.516-19.531-9.86-38.116-15.572-55.4c43.65,23.352,92.621,35.135,142.031,35.132
		c25.425,0,50.955-3.145,75.932-9.376c27.371-6.829,54.074-17.372,79.212-31.727
		C1148.678,577.757,1150.569,573.709,1149.848,569.684z M426.823,250.421c-11.568-19.946-19.266-41.568-23.043-63.434
		c-4.312-24.964-3.496-50.248,2.789-73.74c34.87,21.382,71.767,39.706,109.861,54.538c10.044,3.912,20.306,7.635,30.233,11.233
		c24.093,8.737,49.006,17.769,71.635,29.908c24.928,13.378,57.698,36.814,72.235,72.503c13.151,32.298,9.478,69.134,3.814,102.27
		c-2.768-1.464-5.544-2.889-8.33-4.266c-7.431-3.672-14.912-7.045-22.396-10.131c-11.211-37.943-46.065-64.052-71.904-80.624
		c-4.429-2.839-8.922-5.649-13.423-8.462c-25.479-15.923-51.823-32.385-67.738-56.584c-2.938-4.463-8.926-5.698-13.389-2.764
		c-4.459,2.934-5.698,8.926-2.764,13.389c18.237,27.73,46.405,45.332,73.643,62.354c4.44,2.771,8.866,5.539,13.234,8.341
		c21.023,13.482,45.115,31.34,57.816,55.187c-25.813-8.699-50.955-14.358-73.24-18.011c-9.393-1.54-18.9-2.793-28.456-3.881
		C496.398,321.123,454.733,298.526,426.823,250.421z M851.984,683.01c9.398,59.878,8.703,125.917-14.913,188.802
		c-36.289,96.644-124.845,173.839-233.37,204.659c-5.411,1.537-10.855,2.995-16.362,4.298
		c-66.589,15.749-138.874,14.7-211.161-2.302c-40.587-9.546-81.175-24.102-120.755-43.586
		c-34.764-17.108-60.911-34.088-82.294-53.428c-57.03-51.593-82.358-123.533-93.561-174.801
		c-17.705-81.025-12.339-163.681,15.107-232.737c17.69-44.509,43.247-81.496,74.306-111.672
		c56.622-55.013,131.584-87.29,210.808-100.875c29.975-5.14,60.55-7.643,90.979-7.643c31.079,0,62.021,2.571,91.96,7.476
		c26.113,4.281,56.322,11.421,86.703,23.238c1.625,1.406,3.69,2.251,5.895,2.346c40.821,16.701,81.496,42.077,112.515,80.637
		c20.314,25.253,36.69,56.033,53.088,99.798C833.344,600.355,845.25,640.104,851.984,683.01z M1049.201,595.514
		c-72.673,14.947-149.251,2.097-211.329-38.109c-11.046-29.081-22.202-52.717-34.574-72.975
		c48.157,1.642,95.601,20.434,131.673,52.405c1.926,1.707,3.84,3.459,5.758,5.218c10.753,9.851,21.873,20.038,36.901,24.565
		c0.929,0.279,1.865,0.415,2.79,0.415c4.153,0,7.993-2.7,9.251-6.883c1.541-5.109-1.355-10.5-6.468-12.041
		c-10.799-3.255-19.842-11.539-29.417-20.31c-1.994-1.831-3.987-3.655-5.992-5.433C905.41,484.8,848.588,464.014,792,464.996
		c-0.526,0.01-1.031,0.094-1.533,0.185c-2.464-3.377-4.979-6.669-7.559-9.878c-8.109-10.08-16.829-19.285-25.983-27.744
		c-1.164-1.076-2.324-2.158-3.502-3.208c51.387-11.204,109.256-18.386,159.516,2.63c35.791,14.967,65.948,43.667,95.116,71.423
		c31.811,30.274,64.525,61.406,105.435,75.969C1092.76,583.976,1071.157,590.998,1049.201,595.514z M533.505,486.344
		c-1.541-31.143-15.568-57.974-37.52-71.778c-20.967-13.181-49.765-14.631-79.016-3.972c-20.061,7.306-34.854,18.079-43.977,32.015
		c-17.244,26.34-11.814,59.597-0.978,81.939c16.663,34.364,57.169,87.561,96.423,87.561c0.872,0,1.752-0.026,2.62-0.079
		c21.337-1.31,37.498-17.625,48.032-48.496C527.362,539.289,534.834,513.16,533.505,486.344z M500.791,557.288
		c-7.759,22.738-18.162,34.662-30.92,35.447c-25.003,1.476-61.919-38.37-80.466-76.622c-10.708-22.085-10.803-46.782-0.238-62.916
		c6.785-10.368,18.366-18.592,34.417-24.441c23.595-8.59,46.238-7.808,62.108,2.175c16.372,10.293,27.295,31.894,28.504,56.369
		C515.366,510.868,508.445,534.863,500.791,557.288z M573.57,693.039c11.811,0,25.641-2.805,41.421-8.416
		c24.539-8.726,48.081-20.321,69.966-34.466c32.347-20.895,50.101-43.297,54.273-68.489c6.215-37.539-20.197-70.4-44.702-87.138
		c-34.749-23.731-76.233-27.363-105.707-9.266c-25.762,15.824-38.351,44.906-46.439,68.474
		c-22.058,64.238-22.961,106.976-2.692,127.026C547.962,688.946,559.294,693.039,573.57,693.039z M560.664,560.014
		c7.042-20.514,17.754-45.672,38.275-58.28c9.704-5.958,20.661-8.48,31.796-8.48c18.856,0,38.226,7.231,52.888,17.24
		c19.808,13.529,41.262,39.457,36.531,68.017c-3.228,19.51-18.173,37.633-45.687,55.41c-20.631,13.329-42.821,24.26-65.956,32.487
		c-18.739,6.664-43.535,12.177-55.229,0.608C539.153,653.042,541.774,615.039,560.664,560.014z M709.831,678.276
		c-37.316,2.496-72.839,13.65-99.617,23.081c-2.881,1.016-7.801,2.296-13.502,3.776c-27.533,7.148-49.142,13.646-55.999,26.642
		c-4.875,9.236-5.165,19.57-0.842,29.885c18.381,43.871,121.139,83.4,139.282,88.848c9.228,2.771,19.056,5.229,29.293,5.229
		c2.526,0,5.078-0.151,7.654-0.483c30.357-3.923,57.917-27.503,71.929-61.546c13.706-33.306,10.821-68.644-7.533-92.22
		C766.97,684.11,742.537,676.071,709.831,678.276z M770.15,786.355c-11.376,27.639-33.034,46.692-56.528,49.727
		c-9.383,1.22-19.445-1.25-28.911-4.089c-29.742-8.93-113.848-46.382-127.01-77.8c-2.099-5.018-2.065-9.273,0.109-13.393
		c3.421-6.483,32.729-14.091,43.762-16.957c6.124-1.59,11.414-2.964,15.069-4.248c25.615-9.028,59.507-19.687,94.482-22.032
		c2.892-0.193,5.936-0.31,9.058-0.31c16.455,0,35.081,3.285,45.06,16.108C779.344,731.481,781.224,759.448,770.15,786.355z
		 M569.586,1025.756c1.125,0.053,2.243,0.079,3.357,0.079c23.214,0,44.336-11.478,61.466-20.786
		c16.361-8.892,46.812-25.445,51.479-55.021c1.63-10.328-0.173-21.289-5.2-32.712c-2.334-5.303-5.298-10.696-9.053-16.189
		c-27.11-39.657-84.627-77.891-130.937-87.047c-29.512-5.834-46.061,4.607-54.768,14.386c-20.34,22.851-18.977,65.616-8.601,97.861
		c0.437,1.359,0.905,2.762,1.358,4.145c6.32,19.283,14.351,40.73,28.055,58.824C523.442,1011.34,546.346,1024.627,569.586,1025.756z
		 M495.732,920.407c-8.409-26.136-10.546-62.033,4.637-79.084c5.686-6.389,13.778-9.598,24.146-9.598
		c3.832,0,7.982,0.438,12.43,1.318c41.27,8.159,94.531,43.599,118.734,78.997c2.659,3.889,4.8,7.644,6.537,11.287
		c4.121,8.644,5.696,16.588,4.575,23.688c-2.934,18.6-23.017,30.943-41.613,41.051c-16.651,9.051-35.443,19.325-54.655,18.381
		c-17.248-0.838-35.33-11.614-48.368-28.824c-9.935-13.112-16.668-28.892-22.01-44.057
		C498.573,929.1,497.106,924.68,495.732,920.407z M261.417,941.344c5.358,37.781,34.707,70.271,69.784,77.257
		c8.005,1.59,15.772,2.383,23.251,2.383c18.686,0,35.542-4.939,49.573-14.646c10.55-7.3,18.973-17.065,25.215-28.763
		c5.049-9.461,8.701-20.161,10.666-32.046c0.649-3.934,1.427-8.258,2.254-12.868c0.538-2.999,1.094-6.128,1.65-9.31
		c5.453-31.182,10.931-70.04-0.68-95.51c-12.951-28.424-38.294-39.499-69.55-30.361c-26.257,7.67-55.713,29.911-77.937,56.823
		C272.813,881.948,257.615,914.527,261.417,941.344z M311.192,865.622c19.01-22.971,44.145-42.676,67.811-49.59
		c22.273-6.506,37.494-0.019,46.541,19.827c9.035,19.825,4.243,55.097-0.485,82.495c-0.656,3.801-1.311,7.457-1.927,10.892
		c-0.842,4.701-1.635,9.115-2.299,13.132c-1.384,8.372-3.744,15.991-6.95,22.81c-4.946,10.519-11.953,19.091-20.855,25.249
		c-15.235,10.546-35.315,13.725-58.049,9.202c-27.292-5.433-50.177-31.09-54.417-61.006
		C277.665,918.225,290.957,890.073,311.192,865.622z M113.383,717.714c-1.508,3.647-2.665,7.447-3.48,11.433
		c-2.466,12.067-1.767,25.861,2.079,42.456c3.615,15.576,8.644,27.634,15.478,37.082c2.524,3.49,5.276,6.651,8.321,9.463v0.004
		c15.439,14.257,39.695,20.133,65.774,20.133c21.379,0,43.974-3.957,63.943-10.471c20.324-6.63,37.927-15.909,48.724-26.396
		c22.209-21.571,21.658-42.074,17.286-55.474c-12.162-37.252-68.799-64.88-103.298-69.735c-13.779-1.943-28.217-3.391-42.705-2.5
		c-6.748,0.414-13.506,1.289-20.215,2.942C140.935,682.645,121.527,697.997,113.383,717.714z M189.613,692.834
		c11.975-0.436,24.165,0.861,35.9,2.517c29.549,4.157,78.371,28.269,87.614,56.592c3.934,12.052-0.113,23.701-12.373,35.606
		c-10.832,10.519-29.235,19.078-49.812,24.556c-37.7,10.036-82.725,9.691-102.043-8.158v0.004
		c-8.307-7.676-14.054-19.34-18.082-36.716c-4.165-17.958-4.025-31.347,0.434-42.138c5.807-14.054,20.257-25.147,38.66-29.674
		C176.33,693.841,182.939,693.077,189.613,692.834z M180.188,604.942c0.283,0.781,0.63,1.515,0.942,2.275
		c10.382,25.256,36.659,39.188,55.808,47.509c32.419,14.088,66.533,24.025,101.395,29.542c3.3,0.525,6.834,0.997,10.451,0.997
		c4.448,0,9.02-0.714,13.434-2.915c12.109-6.038,17.788-20.159,15.994-39.767c-4.357-47.469-39.85-147.328-102.139-163.039
		c-23.78-6.011-49.085,3.485-69.448,26.008c-0.969,1.072-1.876,2.198-2.804,3.305C180.03,537.273,170.071,577.007,180.188,604.942z
		 M220.963,518.518c15.413-17.044,33.759-24.426,50.384-20.231c46.371,11.697,82.864,94.323,87.618,146.059
		c0.759,8.333-0.249,18.15-5.369,20.703c-2.904,1.446-7.642,0.857-12.241,0.125c-33.25-5.26-65.79-14.741-96.713-28.179
		c-17.837-7.752-39.215-19.151-46.276-38.638C190.277,576.035,199.992,541.709,220.963,518.518z"/>
</g>
</svg>
